# xmcd
# 
# Track frame offsets:
#     225
#     16436
#     33171
#     52909
#     69716
#     99930
#     115639
#     144057
#     156380
#     178098
#     202929
#     286269
# 
# Disc length: 4213
# 
# Revision: 8
# Processed by: cddbd v1.5.2PL0 Copyright (c) Steve Scherf et al.
# Submitted via: fre:ac v1.0.31
# 
DISCID=9810720c
DTITLE=Camille - Music Hole
DYEAR=2008
DGENRE=Chanson
TTITLE0=Gospel With No lord
TTITLE1=Canards Sauvages
TTITLE2=Home is Where It Hurts
TTITLE3=Kfir
TTITLE4=The Monk
TTITLE5=Cats And Dogs
TTITLE6=Money Note
TTITLE7=Katie's Tea
TTITLE8=Winter's Child
TTITLE9=Waves
TTITLE10=Sanges Sweet
TTITLE11=Data Track
EXTD=
EXTT0=
EXTT1=
EXTT2=
EXTT3=
EXTT4=
EXTT5=
EXTT6=
EXTT7=
EXTT8=
EXTT9=
EXTT10=
EXTT11=
PLAYORDER=
